<?xml version="1.0" encoding="UTF-8" standalone="no"?>
<svg
   viewBox="0 0 22 22"
   version="1.1"
   id="svg6"
   sodipodi:docname="bookmarks.svg"
   inkscape:version="1.1.2 (0a00cf5339, 2022-02-04)"
   xmlns:inkscape="http://www.inkscape.org/namespaces/inkscape"
   xmlns:sodipodi="http://sodipodi.sourceforge.net/DTD/sodipodi-0.dtd"
   xmlns="http://www.w3.org/2000/svg"
   xmlns:svg="http://www.w3.org/2000/svg">
  <sodipodi:namedview
     id="namedview8"
     pagecolor="#ffffff"
     bordercolor="#666666"
     borderopacity="1.0"
     inkscape:pageshadow="2"
     inkscape:pageopacity="0.0"
     inkscape:pagecheckerboard="0"
     showgrid="true"
     inkscape:zoom="14.136364"
     inkscape:cx="-4.6334404"
     inkscape:cy="3.0418006"
     inkscape:window-width="1920"
     inkscape:window-height="1013"
     inkscape:window-x="0"
     inkscape:window-y="0"
     inkscape:window-maximized="1"
     inkscape:current-layer="svg6">
    <inkscape:grid
       type="xygrid"
       id="grid859" />
  </sodipodi:namedview>
  <defs
     id="defs3051">
    <style
       type="text/css"
       id="current-color-scheme">
      .ColorScheme-Text {
        color:#eff0f1;
      }
      </style>
    <linearGradient
       id="a-9-9"
       y1="547.63354"
       y2="499.67896"
       x2="388.86475"
       gradientUnits="userSpaceOnUse"
       gradientTransform="matrix(0.4999251,0,0,0.49999909,-193.2559,-250.89946)"
       x1="428.81628">
      <stop
         stop-color="#2a2c2f"
         id="stop7-5" />
      <stop
         offset="1"
         stop-color="#536161"
         id="stop9-0" />
    </linearGradient>
    <linearGradient
       gradientTransform="matrix(0.49992511,0,0,0.49992511,-34.206689,-0.99970515)"
       id="b-4"
       y1="43.722721"
       y2="7.3077364"
       x2="9.343915"
       gradientUnits="userSpaceOnUse"
       x1="31.819818">
      <stop
         stop-color="#536161"
         id="stop12-8"
         style="stop-color:#dce1e1;stop-opacity:1" />
      <stop
         offset="1"
         stop-color="#f4f5f5"
         id="stop14-7"
         style="stop-color:#fbfbfb;stop-opacity:1" />
    </linearGradient>
    <linearGradient
       id="c-1"
       y1="527.01447"
       x1="406.50085"
       y2="539.82538"
       x2="419.97357"
       gradientUnits="userSpaceOnUse"
       gradientTransform="matrix(0.4999251,0,0,0.49999909,-193.2559,-250.89946)">
      <stop
         stop-color="#292c2f"
         id="stop17-50" />
      <stop
         offset="1"
         stop-opacity="0"
         id="stop19-4" />
    </linearGradient>
  </defs>
  <rect
     style="fill:url(#a-9-9);stroke-width:0.714231"
     id="rect23-8"
     height="19.999964"
     rx="1.4283484"
     y="1"
     x="1.0000043"
     width="19.997004"
     ry="1.4285817" />
  <path
     d="M 9.208764,16.000001 14.001045,20.793 H 21 v -2.999999 l -6.791985,-6.792997 z"
     id="path31-7"
     style="opacity:0.4;fill:url(#c-1);fill-rule:evenodd;stroke-width:0.714231"
     inkscape:connector-curvature="0" />
  <path
     d="M 2.428358,1.0000491 C 1.7141779,1.0000491 1,1.7143331 1,2.4286181 h 1.2e-5 19.996994 4e-6 c 0,-0.714285 -0.714178,-1.428569 -1.428356,-1.428569 z"
     id="path23-2"
     inkscape:connector-curvature="0"
     style="opacity:0.3;fill:#ffffff;fill-opacity:1;stroke-width:0.472423"
     sodipodi:nodetypes="ccccccc" />
  <path
     d="m 19.568654,21 c 0.714178,0 1.428356,-0.714269 1.428356,-1.428576 v 0 H 1 v 0 C 1,20.285731 1.7141779,21 2.428358,21 Z"
     id="path23-5"
     inkscape:connector-curvature="0"
     style="opacity:0.9;fill:#00ccff;fill-opacity:1;stroke-width:0.472423"
     sodipodi:nodetypes="ccccccc" />
  <path
     d="m 11.123729,4.3005519 c -0.114275,-0.00221 -0.219435,0.061859 -0.270355,0.1643982 L 8.897606,8.398047 4.5538881,9.01495 H 4.5537849 C 4.4424686,9.03104 4.3499365,9.10889 4.3149135,9.215891 c -0.035036,0.107105 -0.0075,0.224732 0.073752,0.303698 l 3.1305713,3.078684 -0.7577957,4.327781 c -0.01945,0.111262 0.025835,0.223918 0.116905,0.29053 0.09099,0.06658 0.2118434,0.07561 0.3116307,0.02319 l 3.8907922,-2.030166 3.875771,2.057897 c 0.09937,0.05316 0.22024,0.04509 0.311737,-0.02076 0.09146,-0.06594 0.137752,-0.178063 0.119237,-0.289418 L 14.66088,12.623845 17.813475,9.566931 h -1.02e-4 c 0.08075,-0.07833 0.110125,-0.195879 0.0758,-0.303178 -0.0343,-0.107301 -0.126324,-0.185764 -0.237555,-0.202565 L 13.31152,8.414224 11.384596,4.4660972 v -1.01e-4 C 11.335571,4.36608 11.234661,4.30211 11.123534,4.3004882 Z"
     id="path70-3"
     style="fill:#00ccff;stroke-width:0.0259125" />
</svg>
