<?xml version="1.0" encoding="UTF-8" standalone="no"?>
<svg
   viewBox="0 0 32 32"
   version="1.1"
   id="svg6"
   sodipodi:docname="system-users.svg"
   inkscape:version="1.1.1 (3bf5ae0d25, 2021-09-20)"
   xmlns:inkscape="http://www.inkscape.org/namespaces/inkscape"
   xmlns:sodipodi="http://sodipodi.sourceforge.net/DTD/sodipodi-0.dtd"
   xmlns:xlink="http://www.w3.org/1999/xlink"
   xmlns="http://www.w3.org/2000/svg"
   xmlns:svg="http://www.w3.org/2000/svg">
  <sodipodi:namedview
     id="namedview8"
     pagecolor="#ffffff"
     bordercolor="#666666"
     borderopacity="1.0"
     inkscape:pageshadow="2"
     inkscape:pageopacity="0.0"
     inkscape:pagecheckerboard="0"
     showgrid="true"
     inkscape:zoom="9.8125"
     inkscape:cx="20.89172"
     inkscape:cy="15.898089"
     inkscape:window-width="1920"
     inkscape:window-height="1009"
     inkscape:window-x="0"
     inkscape:window-y="0"
     inkscape:window-maximized="1"
     inkscape:current-layer="svg6">
    <inkscape:grid
       type="xygrid"
       id="grid1111" />
  </sodipodi:namedview>
  <defs
     id="defs3051">
    <style
       type="text/css"
       id="current-color-scheme">
      .ColorScheme-Text {
        color:#eff0f1;
      }
      </style>
    <linearGradient
       inkscape:collect="always"
       xlink:href="#linearGradient853"
       id="linearGradient1623"
       x1="402.04343"
       y1="520.79852"
       x2="431.58115"
       y2="520.79852"
       gradientUnits="userSpaceOnUse"
       gradientTransform="matrix(0.88022928,0,0,0.99995838,-350.89046,-504.77682)" />
    <linearGradient
       inkscape:collect="always"
       id="linearGradient853">
      <stop
         style="stop-color:#00d4aa;stop-opacity:1"
         offset="0"
         id="stop849" />
      <stop
         style="stop-color:#00e5e5;stop-opacity:1"
         offset="1"
         id="stop851" />
    </linearGradient>
  </defs>
  <path
     d="m 25.750374,23.383882 h -0.81295 c -0.449039,0 -0.812042,-0.413753 -0.812042,-0.922121 0,-0.510209 0.363003,-0.923962 0.812042,-0.923962 h 0.81295 c 0.896545,0 1.624992,-0.825656 1.624992,-1.846073 v -2.768245 c 0,-0.0739 -0.01263,-0.147804 -0.03135,-0.219051 -0.007,-0.0271 -0.01782,-0.0532 -0.02732,-0.0811 -0.01154,-0.0316 -0.02187,-0.064 -0.03655,-0.0947 -0.185262,-0.427022 -0.639152,-0.838065 -1.205626,-0.95616 -0.724808,-0.306447 -1.694007,-0.495779 -2.762347,-0.495779 -1.037899,0 -1.980897,0.190662 -2.69859,0.48903 -0.362994,0.0604 -0.682381,0.244729 -0.921953,0.47641 l -0.005,-0.006 c -0.13214,0.132974 -0.304691,0.216571 -0.495131,0.216571 -0.413417,0 -0.749039,-0.381974 -0.749039,-0.851165 0,-0.333046 0.169412,-0.618374 0.413418,-0.757638 0.440386,-0.364655 0.975171,-0.678782 1.596809,-0.912712 -0.665657,-0.752679 -1.106043,-1.763117 -1.18699,-2.89263 -0.01118,-0.124844 -0.01678,-0.250609 -0.01678,-0.377694 V 7.6921563 C 19.24963,5.6531612 20.704389,4 22.499995,4 h 1.624992 c 1.794412,0 3.249976,1.6532212 3.249976,3.6921563 v 2.7687147 c 0,0.509749 -0.364208,0.923501 -0.812856,0.923501 -0.449134,0 -0.812137,-0.413752 -0.812137,-0.923501 V 7.6921563 c 0,-1.0199575 -0.728414,-1.8460731 -1.624983,-1.8460731 h -1.624992 c -0.897783,0 -1.625382,0.8261156 -1.625382,1.8460731 v 2.7687147 c 0,1.529705 1.091782,2.769575 2.437084,2.769575 3.002414,0 5.454955,1.509857 5.667234,3.425166 0.01263,0.0865 0.02107,0.175783 0.02107,0.267739 v 2.768245 c -6e-5,2.039856 -1.455613,3.692156 -3.250035,3.692156 z m -8.541908,-7.9349 c -0.01006,0.032 -0.01977,0.0654 -0.0332,0.0965 -8.6e-4,9.21e-4 -8.6e-4,0.004 -0.002,0.005 h -8.78e-4 c -0.131735,0.307827 -0.405801,0.521917 -0.727154,0.521917 -0.449132,0 -0.812933,-0.413751 -0.812933,-0.9235 0,-0.132055 0.0249,-0.258279 0.069,-0.370945 l -0.003,-10e-4 c 0.191607,-0.47058 0.301549,-0.992498 0.301549,-1.545515 0,-0.205492 -0.01912,-0.406543 -0.04733,-0.603955 0.03045,-0.166323 0.04733,-0.339846 0.04733,-0.516959 V 8.3529488 c 0,-1.3836324 -0.969995,-2.5059357 -2.166887,-2.5059357 H 11.66693 c -1.197299,0 -2.167294,1.1222433 -2.167294,2.5059357 v 3.7575732 c 0,0.177113 0.017065,0.350636 0.047262,0.516959 -0.028179,0.197412 -0.047262,0.398403 -0.047262,0.603955 0,2.038995 1.455573,3.692845 3.25038,3.692845 5.180473,0 9.407151,2.104762 9.719763,4.760402 0.01782,0.102746 0.03045,0.208202 0.03045,0.315507 v 2.308514 C 22.500229,26.347759 21.044661,28 19.249853,28 H 6.2500809 C 4.4555743,27.99997 3,26.347669 3,24.308684 V 22.00016 c 0,-0.107246 0.00913,-0.208202 0.022986,-0.308297 0.1055304,-0.930242 0.6946593,-1.787456 1.6269727,-2.511296 0.1321388,-0.127145 0.3003251,-0.20826 0.4867477,-0.20826 0.4153979,0 0.7521924,0.381334 0.7521924,0.853693 0,0.301949 -0.1380294,0.564267 -0.3463362,0.71663 l 0.00529,0.009 C 4.9610905,20.996873 4.625062,21.490872 4.625062,22.00016 v 2.308525 c 0,1.018627 0.7283708,1.845212 1.6249924,1.845212 H 19.250365 c 0.897782,0 1.624992,-0.826585 1.624992,-1.845212 V 22.00016 c 0,-1.784806 -3.638023,-3.229766 -8.124943,-3.229766 -1.304797,0 -2.487475,-0.586824 -3.3622553,-1.535075 C 9.1568438,16.984719 8.944619,16.70619 8.7605379,16.407814 8.5804086,16.116886 8.4245108,15.804099 8.2959778,15.476012 c -0.00529,-0.0117 -0.00946,-0.0226 -0.014689,-0.0343 -0.053612,-0.139264 -0.1007506,-0.284408 -0.1444285,-0.429502 -0.00957,-0.0329 -0.022259,-0.064 -0.031333,-0.0974 -0.036877,-0.129345 -0.065056,-0.263649 -0.093231,-0.397954 -0.010749,-0.05 -0.02421,-0.0987 -0.033702,-0.150104 -0.028179,-0.153223 -0.046832,-0.310087 -0.064611,-0.46694 -0.00364,-0.0298 -0.00957,-0.0586 -0.011543,-0.0883 -0.017859,-0.190202 -0.027385,-0.383984 -0.027385,-0.580076 0,-0.102286 0.00794,-0.200582 0.013909,-0.301948 -0.00628,-0.104535 -0.013909,-0.207801 -0.013909,-0.313717 V 8.3088206 C 7.8750553,5.9291197 9.5127386,4.001 11.531289,4.001 h 2.437874 c 2.019705,0 3.656226,1.9281197 3.656226,4.3078206 V 12.61578 c 0,0.105916 -0.008,0.209123 -0.01363,0.313717 0.006,0.101416 0.01363,0.199662 0.01363,0.301948 0,0.790527 -0.152765,1.538246 -0.416571,2.218348 z m -8.9267119,2.858131 c 0,0.509279 -0.3642114,0.923092 -0.8129274,0.923092 -0.4490664,0 -0.8120629,-0.413813 -0.8120629,-0.923092 0,-0.509288 0.3629965,-0.923041 0.8120629,-0.923041 0.448716,0 0.8129274,0.413753 0.8129274,0.923041 z"
     id="path2"
     style="fill:url(#linearGradient1623);fill-opacity:1;stroke-width:0.0541264" />
</svg>
