<?xml version="1.0" encoding="UTF-8" standalone="no"?>
<svg
   viewBox="0 0 16 16"
   version="1.1"
   id="svg6"
   sodipodi:docname="file-library-symbolic.svg"
   inkscape:version="1.1.2 (0a00cf5339, 2022-02-04)"
   xmlns:inkscape="http://www.inkscape.org/namespaces/inkscape"
   xmlns:sodipodi="http://sodipodi.sourceforge.net/DTD/sodipodi-0.dtd"
   xmlns="http://www.w3.org/2000/svg"
   xmlns:svg="http://www.w3.org/2000/svg">
  <sodipodi:namedview
     id="namedview8"
     pagecolor="#ffffff"
     bordercolor="#666666"
     borderopacity="1.0"
     inkscape:pageshadow="2"
     inkscape:pageopacity="0.0"
     inkscape:pagecheckerboard="0"
     showgrid="true"
     inkscape:zoom="27.488776"
     inkscape:cx="2.7465755"
     inkscape:cy="7.3484538"
     inkscape:window-width="1920"
     inkscape:window-height="1013"
     inkscape:window-x="0"
     inkscape:window-y="0"
     inkscape:window-maximized="1"
     inkscape:current-layer="svg6">
    <inkscape:grid
       type="xygrid"
       id="grid825" />
  </sodipodi:namedview>
  <defs
     id="defs3051">
    <style
       type="text/css"
       id="current-color-scheme">
      .ColorScheme-Text {
        color:#eff0f1;
      }
      </style>
    <linearGradient
       id="a-9-9"
       y1="547.63354"
       y2="499.67896"
       x2="388.86475"
       gradientUnits="userSpaceOnUse"
       gradientTransform="matrix(0.29995506,0,0,0.29999945,-114.55353,-149.13967)"
       x1="428.81628">
      <stop
         stop-color="#2a2c2f"
         id="stop7-5" />
      <stop
         offset="1"
         stop-color="#536161"
         id="stop9-0" />
    </linearGradient>
    <linearGradient
       id="c-1"
       y1="527.01447"
       x1="406.50085"
       y2="539.82538"
       x2="419.97357"
       gradientUnits="userSpaceOnUse"
       gradientTransform="matrix(0.29995506,0,0,0.29999945,-114.55353,-149.13967)">
      <stop
         stop-color="#292c2f"
         id="stop17-50" />
      <stop
         offset="1"
         stop-opacity="0"
         id="stop19-4" />
    </linearGradient>
  </defs>
  <rect
     style="fill:url(#a-9-9);stroke-width:0.428539"
     id="rect23-8"
     height="11.999979"
     rx="0.85700911"
     y="2"
     x="2.0000029"
     width="11.998203"
     ry="0.85714906" />
  <path
     d="M 6.9252581,11.000001 9.8006266,13.8758 H 14 V 12.075801 L 9.924809,8.0000016 Z"
     id="path31-7"
     style="opacity:0.4;fill:url(#c-1);fill-rule:evenodd;stroke-width:0.428539"
     inkscape:connector-curvature="0" />
  <path
     d="M 2.8570152,2.0000291 C 2.4285076,2.0000291 2,2.4285997 2,2.8571711 h 7e-6 11.998197 2e-6 c 0,-0.4285714 -0.428506,-0.857142 -0.857013,-0.857142 z"
     id="path23-2"
     inkscape:connector-curvature="0"
     style="opacity:0.3;fill:#ffffff;fill-opacity:1;stroke-width:0.283454"
     sodipodi:nodetypes="ccccccc" />
  <path
     d="m 13.141193,14 c 0.428507,0 0.857013,-0.428561 0.857013,-0.857145 v 0 H 2 v 0 C 2,13.571439 2.4285076,14 2.8570152,14 Z"
     id="path23-5"
     inkscape:connector-curvature="0"
     style="opacity:0.9;fill:#00ccff;fill-opacity:1;stroke-width:0.283454"
     sodipodi:nodetypes="ccccccc" />
  <path
     d="m 8.0742372,3.9803308 c -0.068561,-0.00129 -0.1316607,0.037114 -0.1622134,0.098639 L 6.7385637,6.438828 4.1323334,6.8089706 h -6.2e-5 c -0.06679,0.00965 -0.1223099,0.056357 -0.1433228,0.1205631 -0.021027,0.06426 -0.0045,0.1348389 0.044243,0.1822182 l 1.878342,1.8472106 -0.4546777,2.5966695 c -0.011668,0.06675 0.015508,0.134352 0.07015,0.174318 0.054592,0.03995 0.1271062,0.04537 0.1869793,0.01392 l 2.3344753,-1.2181 2.3254625,1.234739 c 0.05962,0.0319 0.132144,0.02705 0.187042,-0.01245 0.05487,-0.03957 0.08265,-0.106838 0.07154,-0.173651 L 10.19652,8.9743064 12.088078,7.1401578 h -6.1e-5 c 0.04844,-0.046989 0.06607,-0.1175262 0.04548,-0.1819062 -0.02058,-0.06438 -0.0758,-0.1114585 -0.142534,-0.1215394 L 9.3869103,6.4485345 8.2307554,4.0796583 v -6e-5 C 8.2013428,4.0196493 8.1407948,3.9812663 8.0741177,3.9802933 Z"
     id="path70-3"
     style="fill:#00ccff;stroke-width:0.0155475" />
</svg>
